<svg width="42" height="38" viewBox="0 0 42 38" fill="none" xmlns="http://www.w3.org/2000/svg">
<g filter="url(#filter0_d_451_322)">
<rect x="6" y="2.91699" width="30" height="25.1528" rx="12" fill="#1A1F37"/>
</g>
<g clip-path="url(#clip0_451_322)">
<path d="M16.5469 21.389H15.6094C15.4229 21.389 15.2441 21.3269 15.1122 21.2163C14.9803 21.1058 14.9062 20.9558 14.9062 20.7995V17.2624C14.9062 17.106 14.9803 16.9561 15.1122 16.8455C15.2441 16.735 15.4229 16.6729 15.6094 16.6729H16.5469C16.7334 16.6729 16.9122 16.735 17.0441 16.8455C17.1759 16.9561 17.25 17.106 17.25 17.2624V20.7995C17.25 20.9558 17.1759 21.1058 17.0441 21.2163C16.9122 21.3269 16.7334 21.389 16.5469 21.389Z" fill="#207EDF"/>
<path d="M23.1094 21.3877H22.1719C21.9854 21.3877 21.8066 21.3256 21.6747 21.215C21.5428 21.1045 21.4688 20.9545 21.4688 20.7982V14.903C21.4688 14.7466 21.5428 14.5967 21.6747 14.4861C21.8066 14.3756 21.9854 14.3135 22.1719 14.3135H23.1094C23.2959 14.3135 23.4747 14.3756 23.6066 14.4861C23.7384 14.5967 23.8125 14.7466 23.8125 14.903V20.7982C23.8125 20.9545 23.7384 21.1045 23.6066 21.215C23.4747 21.3256 23.2959 21.3877 23.1094 21.3877Z" fill="#207EDF"/>
<path d="M26.3906 21.3888H25.4531C25.2666 21.3888 25.0878 21.3267 24.9559 21.2161C24.8241 21.1056 24.75 20.9556 24.75 20.7993V12.153C24.75 11.9966 24.8241 11.8467 24.9559 11.7361C25.0878 11.6256 25.2666 11.5635 25.4531 11.5635H26.3906C26.5771 11.5635 26.7559 11.6256 26.8878 11.7361C27.0197 11.8467 27.0937 11.9966 27.0937 12.153V20.7993C27.0937 20.9556 27.0197 21.1056 26.8878 21.2161C26.7559 21.3267 26.5771 21.3888 26.3906 21.3888Z" fill="#207EDF"/>
<path d="M19.8281 21.388H18.8906C18.7041 21.388 18.5253 21.3259 18.3934 21.2154C18.2616 21.1048 18.1875 20.9549 18.1875 20.7985V10.1872C18.1875 10.0308 18.2616 9.88088 18.3934 9.77032C18.5253 9.65977 18.7041 9.59766 18.8906 9.59766H19.8281C20.0146 9.59766 20.1934 9.65977 20.3253 9.77032C20.4572 9.88088 20.5312 10.0308 20.5312 10.1872V20.7985C20.5312 20.9549 20.4572 21.1048 20.3253 21.2154C20.1934 21.3259 20.0146 21.388 19.8281 21.388Z" fill="#207EDF"/>
</g>
<defs>
<filter id="filter0_d_451_322" x="0.5" y="0.916992" width="41" height="36.1533" filterUnits="userSpaceOnUse" color-interpolation-filters="sRGB">
<feFlood flood-opacity="0" result="BackgroundImageFix"/>
<feColorMatrix in="SourceAlpha" type="matrix" values="0 0 0 0 0 0 0 0 0 0 0 0 0 0 0 0 0 0 127 0" result="hardAlpha"/>
<feOffset dy="3.5"/>
<feGaussianBlur stdDeviation="2.75"/>
<feColorMatrix type="matrix" values="0 0 0 0 0 0 0 0 0 0 0 0 0 0 0 0 0 0 0.02 0"/>
<feBlend mode="normal" in2="BackgroundImageFix" result="effect1_dropShadow_451_322"/>
<feBlend mode="normal" in="SourceGraphic" in2="effect1_dropShadow_451_322" result="shape"/>
</filter>
<clipPath id="clip0_451_322">
<rect width="15" height="12.5764" fill="white" transform="translate(13.5 9.20508)"/>
</clipPath>
</defs>
</svg>
