<svg width="16" height="13" viewBox="0 0 16 13" fill="none" xmlns="http://www.w3.org/2000/svg">
<g clip-path="url(#clip0_979_784)">
<path d="M3.54687 12.389H2.60937C2.42289 12.389 2.24405 12.3269 2.11219 12.2163C1.98033 12.1058 1.90625 11.9558 1.90625 11.7995V8.26237C1.90625 8.10602 1.98033 7.95607 2.11219 7.84552C2.24405 7.73496 2.42289 7.67285 2.60937 7.67285H3.54687C3.73335 7.67285 3.9122 7.73496 4.04406 7.84552C4.17592 7.95607 4.25 8.10602 4.25 8.26237V11.7995C4.25 11.9558 4.17592 12.1058 4.04406 12.2163C3.9122 12.3269 3.73335 12.389 3.54687 12.389V12.389Z" fill="#207EDF"/>
<path d="M10.1094 12.3887H9.17187C8.98539 12.3887 8.80655 12.3266 8.67469 12.216C8.54283 12.1055 8.46875 11.9555 8.46875 11.7992V5.90397C8.46875 5.74762 8.54283 5.59768 8.67469 5.48712C8.80655 5.37656 8.98539 5.31445 9.17187 5.31445H10.1094C10.2959 5.31445 10.4747 5.37656 10.6066 5.48712C10.7384 5.59768 10.8125 5.74762 10.8125 5.90397V11.7992C10.8125 11.9555 10.7384 12.1055 10.6066 12.216C10.4747 12.3266 10.2959 12.3887 10.1094 12.3887V12.3887Z" fill="#207EDF"/>
<path d="M13.3906 12.3878H12.4531C12.2666 12.3878 12.0878 12.3257 11.9559 12.2152C11.8241 12.1046 11.75 11.9547 11.75 11.7983V3.15202C11.75 2.99567 11.8241 2.84572 11.9559 2.73517C12.0878 2.62461 12.2666 2.5625 12.4531 2.5625H13.3906C13.5771 2.5625 13.7559 2.62461 13.8878 2.73517C14.0197 2.84572 14.0937 2.99567 14.0937 3.15202V11.7983C14.0937 11.9547 14.0197 12.1046 13.8878 12.2152C13.7559 12.3257 13.5771 12.3878 13.3906 12.3878V12.3878Z" fill="#207EDF"/>
<path d="M6.82812 12.388H5.89062C5.70414 12.388 5.5253 12.3259 5.39344 12.2154C5.26158 12.1048 5.1875 11.9549 5.1875 11.7985V1.18718C5.1875 1.03083 5.26158 0.880879 5.39344 0.770323C5.5253 0.659766 5.70414 0.597656 5.89062 0.597656H6.82812C7.0146 0.597656 7.19345 0.659766 7.32531 0.770323C7.45717 0.880879 7.53125 1.03083 7.53125 1.18718V11.7985C7.53125 11.9549 7.45717 12.1048 7.32531 12.2154C7.19345 12.3259 7.0146 12.388 6.82812 12.388V12.388Z" fill="#207EDF"/>
</g>
<defs>
<clipPath id="clip0_979_784">
<rect width="15" height="12.5764" fill="white" transform="translate(0.5 0.205078)"/>
</clipPath>
</defs>
</svg>
