<svg width="16" height="13" viewBox="0 0 16 13" fill="none" xmlns="http://www.w3.org/2000/svg">
<g clip-path="url(#clip0_1141_1030)">
<path d="M3.54687 12.3919H2.60937C2.42289 12.3919 2.24405 12.3298 2.11219 12.2193C1.98033 12.1087 1.90625 11.9588 1.90625 11.8024V8.2653C1.90625 8.10895 1.98033 7.959 2.11219 7.84845C2.24405 7.73789 2.42289 7.67578 2.60937 7.67578H3.54687C3.73335 7.67578 3.9122 7.73789 4.04406 7.84845C4.17592 7.959 4.25 8.10895 4.25 8.2653V11.8024C4.25 11.9588 4.17592 12.1087 4.04406 12.2193C3.9122 12.3298 3.73335 12.3919 3.54687 12.3919V12.3919Z" fill="#207EDF"/>
<path d="M10.1094 12.3906H9.17187C8.98539 12.3906 8.80655 12.3285 8.67469 12.218C8.54283 12.1074 8.46875 11.9575 8.46875 11.8011V5.90593C8.46875 5.74958 8.54283 5.59963 8.67469 5.48907C8.80655 5.37852 8.98539 5.31641 9.17187 5.31641H10.1094C10.2959 5.31641 10.4747 5.37852 10.6066 5.48907C10.7384 5.59963 10.8125 5.74958 10.8125 5.90593V11.8011C10.8125 11.9575 10.7384 12.1074 10.6066 12.218C10.4747 12.3285 10.2959 12.3906 10.1094 12.3906V12.3906Z" fill="#207EDF"/>
<path d="M13.3906 12.3917H12.4531C12.2666 12.3917 12.0878 12.3296 11.9559 12.2191C11.8241 12.1085 11.75 11.9586 11.75 11.8022V3.15593C11.75 2.99958 11.8241 2.84963 11.9559 2.73907C12.0878 2.62852 12.2666 2.56641 12.4531 2.56641H13.3906C13.5771 2.56641 13.7559 2.62852 13.8878 2.73907C14.0197 2.84963 14.0937 2.99958 14.0937 3.15593V11.8022C14.0937 11.9586 14.0197 12.1085 13.8878 12.2191C13.7559 12.3296 13.5771 12.3917 13.3906 12.3917V12.3917Z" fill="#207EDF"/>
<path d="M6.82812 12.39H5.89062C5.70414 12.39 5.5253 12.3279 5.39344 12.2173C5.26158 12.1068 5.1875 11.9568 5.1875 11.8005V1.18913C5.1875 1.03278 5.26158 0.882832 5.39344 0.772276C5.5253 0.661719 5.70414 0.599609 5.89062 0.599609H6.82812C7.0146 0.599609 7.19345 0.661719 7.32531 0.772276C7.45717 0.882832 7.53125 1.03278 7.53125 1.18913V11.8005C7.53125 11.9568 7.45717 12.1068 7.32531 12.2173C7.19345 12.3279 7.0146 12.39 6.82812 12.39V12.39Z" fill="#207EDF"/>
</g>
<defs>
<clipPath id="clip0_1141_1030">
<rect width="15" height="12.5764" fill="white" transform="translate(0.5 0.207031)"/>
</clipPath>
</defs>
</svg>
