<svg width="34" height="27" viewBox="0 0 34 27" fill="none" xmlns="http://www.w3.org/2000/svg">
<path d="M19.2098 0.614746H14.7308C14.263 0.614746 13.8838 0.993959 13.8838 1.46174V25.3089C13.8838 25.7767 14.263 26.1559 14.7308 26.1559H19.2098C19.6776 26.1559 20.0568 25.7767 20.0568 25.3089V1.46174C20.0568 0.993959 19.6776 0.614746 19.2098 0.614746Z" fill="black"/>
<path d="M28.339 26.1556C31.237 26.1556 33.5863 23.8063 33.5863 20.9084C33.5863 18.0104 31.237 15.6611 28.339 15.6611C25.4411 15.6611 23.0918 18.0104 23.0918 20.9084C23.0918 23.8063 25.4411 26.1556 28.339 26.1556Z" fill="#0328EE"/>
<path d="M28.339 11.1092C31.237 11.1092 33.5863 8.75997 33.5863 5.86199C33.5863 2.96402 31.237 0.614746 28.339 0.614746C25.4411 0.614746 23.0918 2.96402 23.0918 5.86199C23.0918 8.75997 25.4411 11.1092 28.339 11.1092Z" fill="#0328EE"/>
<path d="M5.60174 26.1556C8.49971 26.1556 10.849 23.8063 10.849 20.9084C10.849 18.0104 8.49971 15.6611 5.60174 15.6611C2.70376 15.6611 0.354492 18.0104 0.354492 20.9084C0.354492 23.8063 2.70376 26.1556 5.60174 26.1556Z" fill="#0328EE"/>
</svg>
