<svg width="46" height="24" viewBox="0 0 46 24" fill="none" xmlns="http://www.w3.org/2000/svg">
<path d="M13.7261 23.1621C12.7575 24.1108 11.1867 24.1094 10.2198 23.1592L0.963773 14.0628C-0.000813797 13.1149 0.00052923 11.581 0.966775 10.6347L10.2228 1.5695C11.189 0.623166 12.7552 0.62185 13.7231 1.56656L23.0109 10.6317C23.9811 11.5788 23.9825 13.1171 23.0139 14.0658L13.7261 23.1621Z" fill="#0328EE"/>
<path d="M26.5207 23.1586C25.5538 24.1089 23.9829 24.1102 23.0143 23.1616L13.7265 14.0653C12.7579 13.1166 12.7593 11.5782 13.7296 10.6312L23.0174 1.56607C23.9852 0.621363 25.5514 0.622678 26.5177 1.56901L35.7737 10.6342C36.7399 11.5805 36.7413 13.1144 35.7767 14.0623L26.5207 23.1586Z" fill="black"/>
<path d="M36.0047 23.1603C35.037 24.1096 33.4664 24.1096 32.4986 23.1603L23.2251 14.0637C22.2584 13.1154 22.2597 11.579 23.2282 10.6323L32.5017 1.56692C33.4687 0.621573 35.0347 0.621573 36.0018 1.56692L45.2752 10.6323C46.2436 11.579 46.245 13.1154 45.2782 14.0637L36.0047 23.1603Z" fill="#0328EE"/>
</svg>
