<svg width="29" height="24" viewBox="0 0 29 24" fill="none" xmlns="http://www.w3.org/2000/svg">
<path d="M24.969 22.5592V12.3457C24.2378 12.6126 23.4369 12.7751 22.6129 12.7751C18.8524 12.7751 15.8 9.73424 15.8 5.99702C15.8 5.50955 15.858 5.0453 15.9509 4.58105H6.89795C3.41607 4.58105 0.595741 7.36656 0.549316 10.8253C8.90584 14.2723 17.4945 18.4622 24.9225 23.36C24.9457 23.0931 24.969 22.8261 24.969 22.5592Z" fill="#0328EE"/>
<path d="M23.1236 10.4336C25.8511 10.4336 28.0563 8.24007 28.0563 5.5242C28.0563 2.81994 25.8511 0.614746 23.1236 0.614746C20.3961 0.614746 18.1909 2.80833 18.1909 5.5242C18.1909 8.22846 20.3961 10.4336 23.1236 10.4336Z" fill="black"/>
</svg>
