<svg width="16" height="13" viewBox="0 0 16 13" fill="none" xmlns="http://www.w3.org/2000/svg">
<path d="M1.4375 9.52494C1.4375 9.88976 1.61035 10.2396 1.91803 10.4976C2.2257 10.7556 2.643 10.9005 3.07812 10.9005H12.9219C13.357 10.9005 13.7743 10.7556 14.082 10.4976C14.3896 10.2396 14.5625 9.88976 14.5625 9.52494V5.74219H1.4375V9.52494ZM3.37109 7.65813C3.37109 7.46269 3.46369 7.27526 3.62852 7.13706C3.79335 6.99886 4.0169 6.92123 4.25 6.92123H5.65625C5.88935 6.92123 6.1129 6.99886 6.27773 7.13706C6.44256 7.27526 6.53515 7.46269 6.53515 7.65813V8.14939C6.53515 8.34483 6.44256 8.53226 6.27773 8.67046C6.1129 8.80865 5.88935 8.88629 5.65625 8.88629H4.25C4.0169 8.88629 3.79335 8.80865 3.62852 8.67046C3.46369 8.53226 3.37109 8.34483 3.37109 8.14939V7.65813Z" fill="#207EDF"/>
<path d="M12.9219 2.25391H3.07812C2.643 2.25391 2.2257 2.39883 1.91803 2.65679C1.61035 2.91476 1.4375 3.26463 1.4375 3.62945V4.2681H14.5625V3.62945C14.5625 3.26463 14.3896 2.91476 14.082 2.65679C13.7743 2.39883 13.357 2.25391 12.9219 2.25391V2.25391Z" fill="#207EDF"/>
</svg>
