<svg width="42" height="37" viewBox="0 0 42 37" fill="none" xmlns="http://www.w3.org/2000/svg">
<g filter="url(#filter0_d_451_322)">
<rect x="6" y="2" width="30" height="25.1528" rx="12" fill="#1A1F37"/>
</g>
<path d="M14.4375 17.523C14.4375 17.8878 14.6104 18.2377 14.918 18.4956C15.2257 18.7536 15.643 18.8985 16.0781 18.8985H25.9219C26.357 18.8985 26.7743 18.7536 27.082 18.4956C27.3896 18.2377 27.5625 17.8878 27.5625 17.523V13.7402H14.4375V17.523ZM16.3711 15.6562C16.3711 15.4607 16.4637 15.2733 16.6285 15.1351C16.7933 14.9969 17.0169 14.9193 17.25 14.9193H18.6562C18.8893 14.9193 19.1129 14.9969 19.2777 15.1351C19.4426 15.2733 19.5352 15.4607 19.5352 15.6562V16.1474C19.5352 16.3429 19.4426 16.5303 19.2777 16.6685C19.1129 16.8067 18.8893 16.8843 18.6562 16.8843H17.25C17.0169 16.8843 16.7933 16.8067 16.6285 16.6685C16.4637 16.5303 16.3711 16.3429 16.3711 16.1474V15.6562Z" fill="#207EDF"/>
<path d="M25.9219 10.252H16.0781C15.643 10.252 15.2257 10.3969 14.918 10.6548C14.6104 10.9128 14.4375 11.2627 14.4375 11.6275V12.2661H27.5625V11.6275C27.5625 11.2627 27.3896 10.9128 27.082 10.6548C26.7743 10.3969 26.357 10.252 25.9219 10.252V10.252Z" fill="#207EDF"/>
<defs>
<filter id="filter0_d_451_322" x="0.5" y="-2.38419e-07" width="41" height="36.1533" filterUnits="userSpaceOnUse" color-interpolation-filters="sRGB">
<feFlood flood-opacity="0" result="BackgroundImageFix"/>
<feColorMatrix in="SourceAlpha" type="matrix" values="0 0 0 0 0 0 0 0 0 0 0 0 0 0 0 0 0 0 127 0" result="hardAlpha"/>
<feOffset dy="3.5"/>
<feGaussianBlur stdDeviation="2.75"/>
<feColorMatrix type="matrix" values="0 0 0 0 0 0 0 0 0 0 0 0 0 0 0 0 0 0 0.02 0"/>
<feBlend mode="normal" in2="BackgroundImageFix" result="effect1_dropShadow_451_322"/>
<feBlend mode="normal" in="SourceGraphic" in2="effect1_dropShadow_451_322" result="shape"/>
</filter>
</defs>
</svg>
