<svg width="30" height="26" viewBox="0 0 30 26" fill="none" xmlns="http://www.w3.org/2000/svg">
<path d="M0 12.6416C0 6.01419 5.37258 0.641602 12 0.641602H18C24.6274 0.641602 30 6.01419 30 12.6416V13.7944C30 20.4219 24.6274 25.7944 18 25.7944H12C5.37258 25.7944 0 20.4219 0 13.7944V12.6416Z" fill="#207EDF"/>
<g clip-path="url(#clip0_451_322)">
<path d="M15.1629 9.41779C15.1193 9.38281 15.0612 9.36328 15.0009 9.36328C14.9405 9.36328 14.8825 9.38281 14.8389 9.41779L9.44531 13.7377C9.42241 13.7561 9.40418 13.7782 9.39175 13.8026C9.37931 13.8271 9.37291 13.8534 9.37295 13.88L9.37207 17.9344C9.37207 18.1428 9.47084 18.3428 9.64666 18.4902C9.82247 18.6376 10.0609 18.7204 10.3096 18.7204H13.125C13.2493 18.7204 13.3685 18.679 13.4565 18.6053C13.5444 18.5316 13.5937 18.4316 13.5937 18.3274V14.9868C13.5937 14.9347 13.6184 14.8847 13.6624 14.8478C13.7063 14.811 13.766 14.7903 13.8281 14.7903H16.1719C16.234 14.7903 16.2936 14.811 16.3376 14.8478C16.3816 14.8847 16.4062 14.9347 16.4062 14.9868V18.3274C16.4062 18.4316 16.4556 18.5316 16.5435 18.6053C16.6314 18.679 16.7507 18.7204 16.875 18.7204H19.6893C19.9379 18.7204 20.1764 18.6376 20.3522 18.4902C20.528 18.3428 20.6268 18.1428 20.6268 17.9344V13.88C20.6268 13.8534 20.6204 13.8271 20.608 13.8026C20.5955 13.7782 20.5773 13.7561 20.5544 13.7377L15.1629 9.41779Z" fill="white"/>
<path d="M21.8826 12.9279L19.6912 11.1702V8.50282C19.6912 8.39859 19.6418 8.29862 19.5539 8.22492C19.466 8.15122 19.3468 8.10981 19.2225 8.10981H17.8162C17.6919 8.10981 17.5727 8.15122 17.4848 8.22492C17.3969 8.29862 17.3475 8.39859 17.3475 8.50282V9.28885L15.6506 7.92853C15.4918 7.79393 15.2557 7.7168 15.0005 7.7168C14.7462 7.7168 14.5107 7.79393 14.3519 7.92878L8.12042 12.9274C7.93819 13.0748 7.91534 13.3172 8.08116 13.4769C8.1228 13.5172 8.17379 13.55 8.23102 13.5732C8.28824 13.5965 8.35052 13.6097 8.41405 13.6122C8.47758 13.6146 8.54103 13.6062 8.60055 13.5874C8.66007 13.5686 8.71441 13.5399 8.76026 13.5029L14.8394 8.63252C14.883 8.59753 14.941 8.57801 15.0014 8.57801C15.0617 8.57801 15.1198 8.59753 15.1634 8.63252L21.2431 13.5029C21.3326 13.5749 21.4526 13.6142 21.5766 13.6122C21.7007 13.6102 21.8187 13.567 21.9049 13.4921C22.0848 13.3359 22.0698 13.078 21.8826 12.9279Z" fill="white"/>
</g>
<defs>
<clipPath id="clip0_451_322">
<rect width="15" height="12.5764" fill="white" transform="translate(7.5 6.92969)"/>
</clipPath>
</defs>
</svg>
