<svg width="16" height="14" viewBox="0 0 16 14" fill="none" xmlns="http://www.w3.org/2000/svg">
<g clip-path="url(#clip0_1141_1035)">
<path d="M8.16289 3.41974C8.11927 3.38476 8.06124 3.36523 8.00088 3.36523C7.94052 3.36523 7.88248 3.38476 7.83887 3.41974L2.44531 7.73969C2.42241 7.75806 2.40418 7.78014 2.39175 7.80458C2.37931 7.82903 2.37291 7.85534 2.37295 7.88191L2.37207 11.9363C2.37207 12.1448 2.47084 12.3447 2.64666 12.4921C2.82247 12.6395 3.06093 12.7224 3.30957 12.7224H6.125C6.24932 12.7224 6.36855 12.681 6.45645 12.6072C6.54436 12.5335 6.59375 12.4336 6.59375 12.3293V8.98874C6.59375 8.93662 6.61844 8.88664 6.6624 8.84978C6.70635 8.81293 6.76596 8.79223 6.82812 8.79223H9.17187C9.23403 8.79223 9.29365 8.81293 9.3376 8.84978C9.38155 8.88664 9.40625 8.93662 9.40625 8.98874V12.3293C9.40625 12.4336 9.45563 12.5335 9.54354 12.6072C9.63145 12.681 9.75068 12.7224 9.875 12.7224H12.6893C12.9379 12.7224 13.1764 12.6395 13.3522 12.4921C13.528 12.3447 13.6268 12.1448 13.6268 11.9363V7.88191C13.6268 7.85534 13.6204 7.82903 13.608 7.80458C13.5955 7.78014 13.5773 7.75806 13.5544 7.73969L8.16289 3.41974Z" fill="#207EDF"/>
<path d="M14.8821 6.92986L12.6907 5.17211V2.50478C12.6907 2.40054 12.6413 2.30058 12.5534 2.22687C12.4655 2.15317 12.3463 2.11176 12.222 2.11176H10.8157C10.6914 2.11176 10.5722 2.15317 10.4843 2.22687C10.3964 2.30058 10.347 2.40054 10.347 2.50478V3.2908L8.65011 1.93049C8.49132 1.79588 8.25518 1.71875 8.00001 1.71875C7.74571 1.71875 7.51016 1.79588 7.35138 1.93073L1.11993 6.92937C0.937706 7.07675 0.914855 7.31919 1.08068 7.47885C1.12232 7.51915 1.1733 7.55192 1.23053 7.57518C1.28776 7.59843 1.35003 7.61168 1.41356 7.61412C1.47709 7.61655 1.54054 7.60813 1.60006 7.58935C1.65958 7.57057 1.71392 7.54183 1.75978 7.50488L7.83888 2.63447C7.88249 2.59949 7.94053 2.57996 8.00089 2.57996C8.06125 2.57996 8.11928 2.59949 8.1629 2.63447L14.2426 7.50488C14.3321 7.57689 14.4521 7.61619 14.5762 7.61416C14.7002 7.61214 14.8183 7.56895 14.9044 7.49408C15.0843 7.33785 15.0693 7.07994 14.8821 6.92986Z" fill="#207EDF"/>
</g>
<defs>
<clipPath id="clip0_1141_1035">
<rect width="15" height="12.5764" fill="white" transform="translate(0.5 0.931641)"/>
</clipPath>
</defs>
</svg>
