<svg width="30" height="26" viewBox="0 0 30 26" fill="none" xmlns="http://www.w3.org/2000/svg">
<path d="M0 12.6416C0 6.01419 5.37258 0.641602 12 0.641602H18C24.6274 0.641602 30 6.01419 30 12.6416V13.7944C30 20.4219 24.6274 25.7944 18 25.7944H12C5.37258 25.7944 0 20.4219 0 13.7944V12.6416Z" fill="#207EDF"/>
<g clip-path="url(#clip0_451_322)">
<path d="M15.1629 9.41779C15.1193 9.38281 15.0612 9.36328 15.0009 9.36328C14.9405 9.36328 14.8825 9.38281 14.8389 9.41779L9.44531 13.7377C9.42241 13.7561 9.40418 13.7782 9.39175 13.8026C9.37931 13.8271 9.37291 13.8534 9.37295 13.88L9.37207 17.9344C9.37207 18.1428 9.47084 18.3428 9.64666 18.4902C9.82247 18.6376 10.0609 18.7204 10.3096 18.7204H13.125C13.2493 18.7204 13.3685 18.679 13.4565 18.6053C13.5444 18.5316 13.5937 18.4316 13.5937 18.3274V14.9868C13.5937 14.9347 13.6184 14.8847 13.6624 14.8478C13.7063 14.811 13.766 14.7903 13.8281 14.7903H16.1719C16.234 14.7903 16.2936 14.811 16.3376 14.8478C16.3816 14.8847 16.4062 14.9347 16.4062 14.9868V18.3274C16.4062 18.4316 16.4556 18.5316 16.5435 18.6053C16.6314 18.679 16.7507 18.7204 16.875 18.7204H19.6893C19.9379 18.7204 20.1764 18.6376 20.3522 18.4902C20.528 18.3428 20.6268 18.1428 20.6268 17.9344V13.88C20.6268 13.8534 20.6204 13.8271 20.608 13.8026C20.5955 13.7782 20.5773 13.7561 20.5544 13.7377L15.1629 9.41779Z" fill="white"/>
<path d="M21.8821 12.9279L19.6907 11.1702V8.50282C19.6907 8.39859 19.6413 8.29862 19.5534 8.22492C19.4655 8.15122 19.3463 8.10981 19.222 8.10981H17.8157C17.6914 8.10981 17.5722 8.15122 17.4843 8.22492C17.3964 8.29862 17.347 8.39859 17.347 8.50282V9.28885L15.6501 7.92853C15.4913 7.79393 15.2552 7.7168 15 7.7168C14.7457 7.7168 14.5102 7.79393 14.3514 7.92878L8.11993 12.9274C7.93771 13.0748 7.91485 13.3172 8.08068 13.4769C8.12232 13.5172 8.1733 13.55 8.23053 13.5732C8.28776 13.5965 8.35003 13.6097 8.41356 13.6122C8.47709 13.6146 8.54054 13.6062 8.60006 13.5874C8.65958 13.5686 8.71392 13.5399 8.75978 13.5029L14.8389 8.63252C14.8825 8.59753 14.9405 8.57801 15.0009 8.57801C15.0612 8.57801 15.1193 8.59753 15.1629 8.63252L21.2426 13.5029C21.3321 13.5749 21.4521 13.6142 21.5762 13.6122C21.7002 13.6102 21.8183 13.567 21.9044 13.4921C22.0843 13.3359 22.0693 13.078 21.8821 12.9279Z" fill="white"/>
</g>
<defs>
<clipPath id="clip0_451_322">
<rect width="15" height="12.5764" fill="white" transform="translate(7.5 6.92969)"/>
</clipPath>
</defs>
</svg>
