<svg width="14" height="12" viewBox="0 0 14 12" fill="none" xmlns="http://www.w3.org/2000/svg">
<path d="M13.2563 2.24942C13.2226 2.19438 13.1738 2.1468 13.1139 2.11056C13.0541 2.07431 12.9849 2.05043 12.912 2.04086C12.8391 2.03128 12.7645 2.03628 12.6943 2.05545C12.6241 2.07462 12.5603 2.10741 12.5081 2.15116L10.7081 3.66132C10.6197 3.73432 10.5006 3.77525 10.3766 3.77525C10.2525 3.77525 10.1334 3.73432 10.0451 3.66132L9.26696 3.00793C9.22343 2.97144 9.18889 2.92811 9.16532 2.88042C9.14176 2.83273 9.12963 2.78162 9.12963 2.73C9.12963 2.67838 9.14176 2.62727 9.16532 2.57958C9.18889 2.53189 9.22343 2.48856 9.26696 2.45206L11.0593 0.949034C11.1131 0.90399 11.1529 0.84867 11.1755 0.787839C11.1981 0.727007 11.2027 0.662488 11.1889 0.599838C11.1751 0.537188 11.1434 0.478286 11.0964 0.428205C11.0494 0.378124 10.9887 0.338365 10.9193 0.312353V0.312353C9.5655 -0.195125 7.87566 0.0696678 6.81013 0.956403C5.90486 1.71001 5.63503 2.88757 6.07038 4.18722C6.09386 4.25652 6.09399 4.32992 6.07077 4.39929C6.04756 4.46866 6.00189 4.53128 5.93884 4.58023L1.0615 8.31508C0.871492 8.45812 0.718231 8.63211 0.611066 8.82644C0.503901 9.02077 0.445078 9.23137 0.438185 9.44539C0.431292 9.65941 0.476475 9.87236 0.570976 10.0713C0.665477 10.2702 0.807316 10.4508 0.98784 10.6022C1.16836 10.7537 1.38379 10.8727 1.62097 10.952C1.85816 11.0313 2.11213 11.0693 2.36739 11.0636C2.62266 11.0579 2.87387 11.0087 3.1057 10.9189C3.33753 10.8292 3.54511 10.7007 3.71579 10.5415L8.21814 6.44311C8.27568 6.39093 8.34911 6.3529 8.43052 6.33312C8.51194 6.31333 8.59824 6.31255 8.68015 6.33086C9.12146 6.43224 9.57668 6.48484 10.0342 6.48732C11.0128 6.48732 11.8715 6.2218 12.4908 5.71014C13.6378 4.76273 13.8127 3.1558 13.2563 2.24942ZM2.41472 10.2725C2.22177 10.2902 2.02704 10.2572 1.85741 10.1781C1.68777 10.099 1.55159 9.97776 1.46767 9.83102C1.38374 9.68429 1.3562 9.51933 1.38886 9.35891C1.42151 9.1985 1.51274 9.05053 1.64996 8.93544C1.78719 8.82035 1.96363 8.7438 2.15495 8.71637C2.34627 8.68894 2.54302 8.71197 2.71807 8.78228C2.89311 8.85259 3.03781 8.96673 3.13219 9.10893C3.22657 9.25113 3.26599 9.41438 3.24499 9.57616C3.2219 9.75416 3.12701 9.92022 2.97602 10.0469C2.82504 10.1735 2.62702 10.2531 2.41472 10.2725V10.2725Z" fill="#207EDF"/>
</svg>
