<svg width="42" height="37" viewBox="0 0 42 37" fill="none" xmlns="http://www.w3.org/2000/svg">
<g filter="url(#filter0_d_451_322)">
<rect x="6" y="2" width="30" height="25.1528" rx="12" fill="#1A1F37"/>
</g>
<g clip-path="url(#clip0_451_322)">
<path d="M27.2568 11.2494C27.2231 11.1944 27.1743 11.1468 27.1144 11.1106C27.0546 11.0743 26.9854 11.0504 26.9125 11.0409C26.8395 11.0313 26.7649 11.0363 26.6948 11.0554C26.6246 11.0746 26.5608 11.1074 26.5086 11.1512L24.7086 12.6613C24.6202 12.7343 24.5011 12.7753 24.3771 12.7753C24.253 12.7753 24.1339 12.7343 24.0456 12.6613L23.2675 12.0079C23.2239 11.9714 23.1894 11.9281 23.1658 11.8804C23.1422 11.8327 23.1301 11.7816 23.1301 11.73C23.1301 11.6784 23.1422 11.6273 23.1658 11.5796C23.1894 11.5319 23.2239 11.4886 23.2675 11.4521L25.0598 9.94903C25.1136 9.90399 25.1534 9.84867 25.176 9.78784C25.1986 9.72701 25.2032 9.66249 25.1894 9.59984C25.1756 9.53719 25.1439 9.47829 25.0969 9.4282C25.0499 9.37812 24.9892 9.33837 24.9198 9.31235C23.566 8.80488 21.8761 9.06967 20.8106 9.9564C19.9053 10.71 19.6355 11.8876 20.0709 13.1872C20.0943 13.2565 20.0945 13.3299 20.0713 13.3993C20.048 13.4687 20.0024 13.5313 19.9393 13.5802L15.062 17.3151C14.872 17.4581 14.7187 17.6321 14.6116 17.8264C14.5044 18.0208 14.4456 18.2314 14.4387 18.4454C14.4318 18.6594 14.477 18.8724 14.5715 19.0713C14.666 19.2702 14.8078 19.4508 14.9883 19.6022C15.1689 19.7537 15.3843 19.8727 15.6215 19.952C15.8586 20.0313 16.1126 20.0693 16.3679 20.0636C16.6231 20.0579 16.8744 20.0087 17.1062 19.9189C17.338 19.8292 17.5456 19.7007 17.7163 19.5415L22.2186 15.4431C22.2762 15.3909 22.3496 15.3529 22.431 15.3331C22.5124 15.3133 22.5987 15.3126 22.6806 15.3309C23.1219 15.4322 23.5772 15.4848 24.0347 15.4873C25.0133 15.4873 25.8719 15.2218 26.4913 14.7101C27.6383 13.7627 27.8132 12.1558 27.2568 11.2494ZM16.4152 19.2725C16.2223 19.2902 16.0275 19.2572 15.8579 19.1781C15.6883 19.099 15.5521 18.9778 15.4682 18.831C15.3842 18.6843 15.3567 18.5193 15.3893 18.3589C15.422 18.1985 15.5132 18.0505 15.6505 17.9354C15.7877 17.8203 15.9641 17.7438 16.1554 17.7164C16.3468 17.6889 16.5435 17.712 16.7186 17.7823C16.8936 17.8526 17.0383 17.9667 17.1327 18.1089C17.2271 18.2511 17.2665 18.4144 17.2455 18.5762C17.2224 18.7542 17.1275 18.9202 16.9765 19.0469C16.8255 19.1735 16.6275 19.2531 16.4152 19.2725Z" fill="#207EDF"/>
</g>
<defs>
<filter id="filter0_d_451_322" x="0.5" y="-2.38419e-07" width="41" height="36.1533" filterUnits="userSpaceOnUse" color-interpolation-filters="sRGB">
<feFlood flood-opacity="0" result="BackgroundImageFix"/>
<feColorMatrix in="SourceAlpha" type="matrix" values="0 0 0 0 0 0 0 0 0 0 0 0 0 0 0 0 0 0 127 0" result="hardAlpha"/>
<feOffset dy="3.5"/>
<feGaussianBlur stdDeviation="2.75"/>
<feColorMatrix type="matrix" values="0 0 0 0 0 0 0 0 0 0 0 0 0 0 0 0 0 0 0.02 0"/>
<feBlend mode="normal" in2="BackgroundImageFix" result="effect1_dropShadow_451_322"/>
<feBlend mode="normal" in="SourceGraphic" in2="effect1_dropShadow_451_322" result="shape"/>
</filter>
<clipPath id="clip0_451_322">
<rect width="15" height="12.5764" fill="white" transform="translate(13.5 8.28809)"/>
</clipPath>
</defs>
</svg>
