<svg width="42" height="37" viewBox="0 0 42 37" fill="none" xmlns="http://www.w3.org/2000/svg">
<g filter="url(#filter0_d_451_322)">
<rect x="6" y="2" width="30" height="25.1528" rx="12" fill="#1A1F37"/>
</g>
<g clip-path="url(#clip0_451_322)">
<path d="M27.4933 9.22828C27.4879 9.20656 27.4753 9.18656 27.4569 9.17064C27.4384 9.15472 27.415 9.14353 27.3892 9.13838C25.6733 8.78664 21.7086 10.0401 19.5605 11.8403C19.1774 12.159 18.8281 12.505 18.5167 12.8745C17.8543 12.8253 17.1919 12.8664 16.6273 13.0727C15.0345 13.6605 14.5707 15.1942 14.4415 15.854C14.4342 15.8901 14.4369 15.9271 14.4496 15.9622C14.4622 15.9973 14.4844 16.0294 14.5143 16.0561C14.5443 16.0827 14.5812 16.1032 14.6222 16.1159C14.6632 16.1286 14.7072 16.1331 14.7506 16.1291L17.3085 15.8926C17.3103 16.0542 17.322 16.2158 17.3434 16.3765C17.3562 16.488 17.4153 16.5923 17.5103 16.6712L18.5009 17.4997C18.595 17.5793 18.7194 17.6288 18.8524 17.6397C19.043 17.6576 19.2346 17.6674 19.4264 17.669L19.1457 19.8109C19.141 19.8473 19.1465 19.8841 19.1616 19.9185C19.1767 19.9528 19.2011 19.9837 19.2329 20.0088C19.2647 20.034 19.303 20.0525 19.3448 20.0632C19.3866 20.0738 19.4308 20.0761 19.4738 20.07C20.2593 19.9644 22.0918 19.5756 22.7888 18.2401C23.0349 17.7667 23.0852 17.2141 23.0284 16.6614C23.4702 16.4002 23.8839 16.1073 24.265 15.786C26.4198 13.9884 27.9063 10.7384 27.4933 9.22828ZM22.1152 13.6416C21.9185 13.4767 21.7844 13.2666 21.7301 13.0379C21.6758 12.8092 21.7036 12.5721 21.81 12.3566C21.9164 12.1411 22.0966 11.9569 22.3279 11.8273C22.5592 11.6977 22.8311 11.6286 23.1093 11.6286C23.3874 11.6286 23.6594 11.6977 23.8906 11.8273C24.1219 11.9569 24.3022 12.1411 24.4086 12.3566C24.515 12.5721 24.5428 12.8092 24.4884 13.0379C24.4341 13.2666 24.3001 13.4767 24.1033 13.6416C23.9728 13.7511 23.8179 13.838 23.6473 13.8973C23.4768 13.9566 23.2939 13.9871 23.1093 13.9871C22.9246 13.9871 22.7418 13.9566 22.5712 13.8973C22.4007 13.838 22.2457 13.7511 22.1152 13.6416Z" fill="#207EDF"/>
<path d="M18.4336 18.1C18.273 18.2349 18.0155 18.2875 17.7056 18.3324C17.0092 18.4319 16.3942 17.9274 16.5193 17.3371C16.5671 17.1133 16.7083 16.7997 16.7962 16.726C16.8154 16.7102 16.8282 16.6897 16.8327 16.6675C16.8373 16.6452 16.8334 16.6224 16.8215 16.6021C16.8097 16.5818 16.7905 16.5652 16.7668 16.5546C16.743 16.544 16.7159 16.5399 16.6893 16.543C16.2998 16.5829 15.9375 16.731 15.6601 16.9635C14.9713 17.5415 14.9062 19.6861 14.9062 19.6861C14.9062 19.6861 17.4656 19.6316 18.1544 19.0536C18.4326 18.8211 18.6094 18.5169 18.6562 18.1899C18.6671 18.0873 18.518 18.0261 18.4336 18.1Z" fill="#207EDF"/>
</g>
<defs>
<filter id="filter0_d_451_322" x="0.5" y="-2.38419e-07" width="41" height="36.1533" filterUnits="userSpaceOnUse" color-interpolation-filters="sRGB">
<feFlood flood-opacity="0" result="BackgroundImageFix"/>
<feColorMatrix in="SourceAlpha" type="matrix" values="0 0 0 0 0 0 0 0 0 0 0 0 0 0 0 0 0 0 127 0" result="hardAlpha"/>
<feOffset dy="3.5"/>
<feGaussianBlur stdDeviation="2.75"/>
<feColorMatrix type="matrix" values="0 0 0 0 0 0 0 0 0 0 0 0 0 0 0 0 0 0 0.02 0"/>
<feBlend mode="normal" in2="BackgroundImageFix" result="effect1_dropShadow_451_322"/>
<feBlend mode="normal" in="SourceGraphic" in2="effect1_dropShadow_451_322" result="shape"/>
</filter>
<clipPath id="clip0_451_322">
<rect width="15" height="12.5764" fill="white" transform="translate(13.5 8.28809)"/>
</clipPath>
</defs>
</svg>
