<svg width="16" height="13" viewBox="0 0 16 13" fill="none" xmlns="http://www.w3.org/2000/svg">
<g clip-path="url(#clip0_1089_625)">
<path d="M14.4933 1.22926C14.4879 1.20754 14.4753 1.18754 14.4569 1.17162C14.4384 1.1557 14.415 1.14451 14.3892 1.13936C12.6733 0.787613 8.70859 2.04108 6.56054 3.84132C6.17742 4.15995 5.82815 4.50596 5.5167 4.87544C4.85429 4.82631 4.19189 4.86733 3.62734 5.07366C2.03447 5.66146 1.5707 7.1952 1.4415 7.85497C1.43417 7.89108 1.43694 7.92813 1.44958 7.96319C1.46222 7.99825 1.48439 8.03038 1.51434 8.05705C1.5443 8.08371 1.58123 8.10418 1.62222 8.11686C1.66321 8.12953 1.70715 8.13405 1.75058 8.13008L4.30849 7.89353C4.31032 8.05522 4.32196 8.21673 4.34336 8.37743C4.35623 8.48903 4.41531 8.59332 4.51035 8.67219L5.50087 9.50071C5.59503 9.58029 5.71938 9.62981 5.85244 9.64072C6.04303 9.6586 6.23459 9.66835 6.42636 9.66995L6.1457 11.8119C6.14102 11.8483 6.14646 11.8851 6.16159 11.9194C6.17673 11.9538 6.20115 11.9847 6.23294 12.0098C6.26472 12.0349 6.30302 12.0535 6.34481 12.0641C6.3866 12.0748 6.43076 12.0771 6.47382 12.071C7.25927 11.9654 9.09179 11.5766 9.78876 10.241C10.0349 9.76771 10.0852 9.21504 10.0284 8.66236C10.4702 8.40121 10.8839 8.1083 11.265 7.78693C13.4198 5.98939 14.9063 2.73941 14.4933 1.22926ZM9.11523 5.64255C8.91847 5.47769 8.78445 5.26761 8.73011 5.03887C8.67578 4.81014 8.70357 4.57304 8.80998 4.35755C8.91639 4.14207 9.09663 3.95788 9.3279 3.82829C9.55918 3.6987 9.8311 3.62953 10.1093 3.62953C10.3874 3.62953 10.6594 3.6987 10.8906 3.82829C11.1219 3.95788 11.3022 4.14207 11.4086 4.35755C11.515 4.57304 11.5428 4.81014 11.4884 5.03887C11.4341 5.26761 11.3001 5.47769 11.1033 5.64255C10.9728 5.7521 10.8179 5.83901 10.6473 5.8983C10.4768 5.9576 10.2939 5.98812 10.1093 5.98812C9.92462 5.98812 9.74179 5.9576 9.57122 5.8983C9.40065 5.83901 9.2457 5.7521 9.11523 5.64255Z" fill="#207EDF"/>
<path d="M5.43359 10.101C5.27305 10.2359 5.01553 10.2884 4.70557 10.3334C4.00918 10.4329 3.39424 9.92834 3.51934 9.33808C3.56709 9.11431 3.7083 8.80064 3.79619 8.72695C3.8154 8.71115 3.82819 8.69068 3.83273 8.66845C3.83728 8.64621 3.83336 8.62334 3.82152 8.60308C3.80968 8.58282 3.79053 8.56621 3.76679 8.55559C3.74305 8.54498 3.71592 8.54091 3.68926 8.54395C3.29983 8.5839 2.93754 8.73193 2.66006 8.96448C1.97129 9.54245 1.90625 11.6871 1.90625 11.6871C1.90625 11.6871 4.46562 11.6325 5.15439 11.0546C5.43261 10.8221 5.60939 10.5179 5.65625 10.1909C5.66709 10.0882 5.51797 10.0271 5.43359 10.101Z" fill="#207EDF"/>
</g>
<defs>
<clipPath id="clip0_1089_625">
<rect width="15" height="12.5764" fill="white" transform="translate(0.5 0.289062)"/>
</clipPath>
</defs>
</svg>
